<?xml version="1.0" encoding="UTF-8" standalone="no" ?>
<!DOCTYPE svg PUBLIC "-//W3C//DTD SVG 1.1//EN" "http://www.w3.org/Graphics/SVG/1.1/DTD/svg11.dtd">
<svg xmlns="http://www.w3.org/2000/svg" xmlns:xlink="http://www.w3.org/1999/xlink" version="1.1" width="1080" height="1080" viewBox="0 0 1080 1080" xml:space="preserve">
<desc>Created with Fabric.js 5.2.4</desc>
<defs>
</defs>
<g transform="matrix(1 0 0 1 540 540)" id="f43ab402-63f9-4f7a-9d7c-49864d06ece9"  >
<rect style="stroke: none; stroke-width: 1; stroke-dasharray: none; stroke-linecap: butt; stroke-dashoffset: 0; stroke-linejoin: miter; stroke-miterlimit: 4; fill: rgb(255,255,255); fill-rule: nonzero; opacity: 1; visibility: hidden;" vector-effect="non-scaling-stroke"  x="-540" y="-540" rx="0" ry="0" width="1080" height="1080" />
</g>
<g transform="matrix(1 0 0 1 540 540)" id="39545e6c-9f9c-4a3c-be53-b1c97f70c650"  >
</g>
<g transform="matrix(0.93 0 0 -1 540 581.42)"  >
<path style="stroke: rgb(0,0,0); stroke-width: 0; stroke-dasharray: none; stroke-linecap: butt; stroke-dashoffset: 0; stroke-linejoin: miter; stroke-miterlimit: 4; fill: rgb(6,95,212); fill-rule: nonzero; opacity: 1;" vector-effect="non-scaling-stroke"  transform=" translate(-61.43, -56.71)" d="M 4.29 47.64 L 23.59 47.64 C 24.73832814925822 47.645251309969126 25.837081442994435 48.108543190223344 26.642483091796144 48.9270865908703 C 27.447884740597853 49.74562999151726 27.893333818628015 50.8517372583263 27.88 52 L 27.88 109.1 C 27.880025544342715 111.47255861024634 25.96253306604114 113.39899044742111 23.590000000000003 113.41 L 4.29 113.41 C 1.9174669339588628 113.39899044742111 -0.00002554434271395678 111.47255861024632 8.881784197001252e-16 109.1 L 0 52 C -0.000025544342714277796 49.62744138975366 1.9174669339588601 47.70100955257888 4.289999999999997 47.69 Z M 59 4.77 C 61.27 -6.710000000000001 80.07 3.8599999999999994 81.31 22.37 C 81.57921171064575 28.955534872996438 81.03171061750335 35.549060307588526 79.68 41.999999999999986 L 106.55000000000001 42 C 117.72000000000001 42.44 127.47000000000001 50.44 120.55000000000001 63.58 C 122.12 69.3 122.36000000000001 76.02 118.10000000000001 78.67 C 118.63000000000001 87.67 116.10000000000001 93.31 111.45 97.73 C 111.14 102.25 110.18 106.26 108 109.35000000000001 C 104.39 114.44000000000001 101.46 113.23 95.78 113.23 L 50.45 113.23 C 43.260000000000005 113.23 39.34 111.23 34.64 105.35000000000001 L 34.64 54.81 C 48.16 51.16 55.35 32.66 59 20.51 L 59 4.77 Z" stroke-linecap="round" />
</g>
</svg>