<svg xmlns="http://www.w3.org/2000/svg" data-name="Layer 1" width="1764.9656968159516" height="1374.7434957072442" style=""><rect id="backgroundrect" width="100%" height="100%" x="0" y="0" fill="none" stroke="none" style="" class=""/><defs><style>.cls-1{fill:#065fd4;}</style></defs><title>blue-like-button</title><g class="currentLayer" style=""><title>Layer 1</title><path class="cls-1 selected" d="M1069.4762317996842,506.0666569787837 h-108.29620464897727 A-24.184281970833787,22.393483088118682 0 0 1 937.1079692261411,528.7199252535396 V825.3946083931165 a-24.184281970833787,22.393483088118682 0 0 1 24.072057924565424,22.393483088118682 H1069.4762317996842 A-24.184281970833787,22.393483088118682 0 0 1 1093.5482897242493,825.3946083931165 V528.7199252535396 a-24.184281970833787,22.393483088118682 0 0 1 -24.072057924565424,-22.393483088118682 zM762.4873532325571,283.3268379561276 c-12.737429251460021,-59.64667885187992 -118.22803274372805,-4.72809039679536 -125.18592361236698,91.44438569626189 A-447.8861686570656,414.7210719474786 0 0 1 646.4476893910623,476.76288792611814 h-150.7730061615554 c-62.67712984088478,2.2861096424065517 -117.38635239671528,43.85173950434376 -78.55683238785916,112.12328655257566 c-8.809587632067064,29.71942535128511 -10.156276187287512,64.63455443531237 13.747445667875356,78.40316932707908 c-2.973937226111811,46.76133359467937 11.222404626837022,76.06510264734511 37.314495384233105,99.03011314606542 c1.7394727171597437,23.484580871994527 7.12622693804151,44.31935284029056 19.35864798129387,60.37407737446383 c20.256440351440833,26.446131999657556 36.69726312975707,20.15933048303955 68.56889226997421,20.15933048303955 H810.4631330122853 c40.3445446334791,0 62.340457702079654,-10.391407465484306 88.71310857514668,-40.94214541400816 V543.319852742545 C823.312786310014,524.3555341180362 782.9682416765345,428.2350150623064 762.4873532325571,365.1072147094892 V283.3268379561276 z" id="svg_1" transform="rotate(-180 748.8380737304688,553.16796875) "/></g></svg>