<svg id="visual" viewBox="0 0 900 600" width="900" height="600" xmlns="http://www.w3.org/2000/svg" xmlns:xlink="http://www.w3.org/1999/xlink" version="1.1"><path d="M0 115L21.5 116C43 117 86 119 128.8 112C171.7 105 214.3 89 257.2 86C300 83 343 93 385.8 87C428.7 81 471.3 59 514.2 47C557 35 600 33 642.8 48C685.7 63 728.3 95 771.2 102C814 109 857 91 878.5 82L900 73L900 0L878.5 0C857 0 814 0 771.2 0C728.3 0 685.7 0 642.8 0C600 0 557 0 514.2 0C471.3 0 428.7 0 385.8 0C343 0 300 0 257.2 0C214.3 0 171.7 0 128.8 0C86 0 43 0 21.5 0L0 0Z" fill="#dc86ff"></path><path d="M0 241L21.5 244C43 247 86 253 128.8 245C171.7 237 214.3 215 257.2 200C300 185 343 177 385.8 165C428.7 153 471.3 137 514.2 140C557 143 600 165 642.8 176C685.7 187 728.3 187 771.2 182C814 177 857 167 878.5 162L900 157L900 71L878.5 80C857 89 814 107 771.2 100C728.3 93 685.7 61 642.8 46C600 31 557 33 514.2 45C471.3 57 428.7 79 385.8 85C343 91 300 81 257.2 84C214.3 87 171.7 103 128.8 110C86 117 43 115 21.5 114L0 113Z" fill="#d368ff"></path><path d="M0 403L21.5 390C43 377 86 351 128.8 342C171.7 333 214.3 341 257.2 348C300 355 343 361 385.8 391C428.7 421 471.3 475 514.2 485C557 495 600 461 642.8 421C685.7 381 728.3 335 771.2 319C814 303 857 317 878.5 324L900 331L900 155L878.5 160C857 165 814 175 771.2 180C728.3 185 685.7 185 642.8 174C600 163 557 141 514.2 138C471.3 135 428.7 151 385.8 163C343 175 300 183 257.2 198C214.3 213 171.7 235 128.8 243C86 251 43 245 21.5 242L0 239Z" fill="#c844ff"></path><path d="M0 499L21.5 513C43 527 86 555 128.8 548C171.7 541 214.3 499 257.2 494C300 489 343 521 385.8 540C428.7 559 471.3 565 514.2 549C557 533 600 495 642.8 497C685.7 499 728.3 541 771.2 535C814 529 857 475 878.5 448L900 421L900 329L878.5 322C857 315 814 301 771.2 317C728.3 333 685.7 379 642.8 419C600 459 557 493 514.2 483C471.3 473 428.7 419 385.8 389C343 359 300 353 257.2 346C214.3 339 171.7 331 128.8 340C86 349 43 375 21.5 388L0 401Z" fill="#ae38e0"></path><path d="M0 601L21.5 601C43 601 86 601 128.8 601C171.7 601 214.3 601 257.2 601C300 601 343 601 385.8 601C428.7 601 471.3 601 514.2 601C557 601 600 601 642.8 601C685.7 601 728.3 601 771.2 601C814 601 857 601 878.5 601L900 601L900 419L878.5 446C857 473 814 527 771.2 533C728.3 539 685.7 497 642.8 495C600 493 557 531 514.2 547C471.3 563 428.7 557 385.8 538C343 519 300 487 257.2 492C214.3 497 171.7 539 128.8 546C86 553 43 525 21.5 511L0 497Z" fill="#952cc1"></path></svg>